<svg width="41" height="40" viewBox="0 0 41 40" fill="none" xmlns="http://www.w3.org/2000/svg">
<path d="M20.5 38.5032C31.1158 38.5032 39.7216 29.8974 39.7216 19.2816C39.7216 8.66584 31.1158 0.0600586 20.5 0.0600586C9.88423 0.0600586 1.27844 8.66584 1.27844 19.2816C1.27844 29.8974 9.88423 38.5032 20.5 38.5032Z" fill="#88C1E0"/>
<path d="M35.4701 39.9999H15.7695C13.5539 39.9999 11.6976 38.2035 11.6976 35.9281V9.46102C11.6976 7.24545 13.4941 5.38916 15.7695 5.38916H35.4701C37.6857 5.38916 39.5419 7.18557 39.5419 9.46102V35.9281C39.5419 38.2035 37.6857 39.9999 35.4701 39.9999Z" fill="#2951A3"/>
<path d="M32.9551 39.9999H13.2545C11.0389 39.9999 9.18262 38.2035 9.18262 35.9281V9.46102C9.18262 7.24545 10.979 5.38916 13.2545 5.38916H32.9551C35.1706 5.38916 37.0269 7.18557 37.0269 9.46102V35.9281C37.0269 38.2035 35.1706 39.9999 32.9551 39.9999Z" fill="#3A6ACD"/>
<path d="M15.7096 17.3654H14.033C12.6557 17.3654 11.5779 16.2875 11.5779 14.9103V12.8145C11.5779 11.4372 12.6557 10.3594 14.033 10.3594H15.7096C14.3324 10.3594 13.2545 11.4372 13.2545 12.8145V14.9103C13.2545 16.2875 14.3324 17.3654 15.7096 17.3654Z" fill="#5982D5"/>
<path d="M34.8713 12.8145V14.9103C34.8713 16.2875 33.7934 17.3654 32.4162 17.3654H15.7096C14.3324 17.3654 13.2545 16.2875 13.2545 14.9103V12.8145C13.2545 11.4372 14.3324 10.3594 15.7096 10.3594H32.4162C33.7934 10.3594 34.8713 11.4971 34.8713 12.8145Z" fill="#C5D4EC"/>
<path d="M34.8712 27.3055V35.5689C34.8712 36.7067 33.973 37.6049 32.8353 37.6049H31.8772C33.0149 37.6049 33.9131 36.7067 33.9131 35.5689V27.3055C33.9131 26.8863 33.6137 26.5869 33.1946 26.5869H34.1526C34.5718 26.5869 34.8712 26.8863 34.8712 27.3055Z" fill="#CA7439"/>
<path d="M33.9131 27.3055V35.5689C33.9131 36.7067 33.0149 37.6049 31.8772 37.6049H30.9191C30.5 37.6049 30.2006 37.3055 30.2006 36.8863V27.3055C30.2006 26.8863 30.5 26.5869 30.9191 26.5869H33.1946C33.6137 26.5869 33.9131 26.8863 33.9131 27.3055Z" fill="#F8D179"/>
<path d="M33.9132 20.3594H31.0988C30.5599 20.3594 30.1407 20.7785 30.1407 21.3175V24.1318C30.1407 24.6708 30.5599 25.0899 31.0988 25.0899H33.9132C34.4521 25.0899 34.8713 24.6708 34.8713 24.1318V21.3175C34.8713 20.7785 34.4521 20.3594 33.9132 20.3594Z" fill="#86C7C3"/>
<path d="M27.6857 20.3594H24.8713C24.3324 20.3594 23.9132 20.7785 23.9132 21.3175V24.1318C23.9132 24.6708 24.3324 25.0899 24.8713 25.0899H27.6857C28.2246 25.0899 28.6438 24.6708 28.6438 24.1318V21.3175C28.6438 20.7785 28.2246 20.3594 27.6857 20.3594Z" fill="#5982D5"/>
<path d="M21.5779 20.3594H18.7635C18.2246 20.3594 17.8054 20.7785 17.8054 21.3175V24.1318C17.8054 24.6708 18.2246 25.0899 18.7635 25.0899H21.5779C22.1168 25.0899 22.536 24.6708 22.536 24.1318V21.3175C22.4761 20.7785 22.0569 20.3594 21.5779 20.3594Z" fill="#5982D5"/>
<path d="M16.3683 21.3175V24.1318C16.3683 24.6708 15.9492 25.0899 15.4102 25.0899H14.4521C14.9911 25.0899 15.4102 24.6708 15.4102 24.1318V21.3175C15.4102 20.7785 14.9911 20.3594 14.4521 20.3594H15.4102C15.9492 20.3594 16.3683 20.7785 16.3683 21.3175Z" fill="#486AAF"/>
<path d="M22.4761 21.3175V24.1318C22.4761 24.6708 22.0569 25.0899 21.518 25.0899H20.5599C21.0989 25.0899 21.518 24.6708 21.518 24.1318V21.3175C21.518 20.7785 21.0989 20.3594 20.5599 20.3594H21.518C22.0569 20.3594 22.4761 20.7785 22.4761 21.3175Z" fill="#486AAF"/>
<path d="M28.6437 21.3175V24.1318C28.6437 24.6708 28.2245 25.0899 27.6856 25.0899H26.7275C27.2665 25.0899 27.6856 24.6708 27.6856 24.1318V21.3175C27.6856 20.7785 27.2665 20.3594 26.7275 20.3594H27.6856C28.2245 20.3594 28.6437 20.7785 28.6437 21.3175Z" fill="#486AAF"/>
<path d="M34.8713 21.3175V24.1318C34.8713 24.6708 34.4521 25.0899 33.9132 25.0899H32.9551C33.494 25.0899 33.9132 24.6708 33.9132 24.1318V21.3175C33.9132 20.7785 33.494 20.3594 32.9551 20.3594H33.9132C34.4521 20.3594 34.8713 20.7785 34.8713 21.3175Z" fill="#486AAF"/>
<path d="M15.4102 21.3175V24.1318C15.4102 24.6708 14.991 25.0899 14.4521 25.0899H12.5958C12.0569 25.0899 11.6377 24.6708 11.6377 24.1318V21.3175C11.6377 20.7785 12.0569 20.3594 12.5958 20.3594H14.4521C14.991 20.3594 15.4102 20.7785 15.4102 21.3175Z" fill="#5982D5"/>
<path d="M27.6857 26.5869H24.8713C24.3324 26.5869 23.9132 27.0061 23.9132 27.545V30.3594C23.9132 30.8983 24.3324 31.3175 24.8713 31.3175H27.6857C28.2246 31.3175 28.6438 30.8983 28.6438 30.3594V27.545C28.6438 27.0061 28.2246 26.5869 27.6857 26.5869Z" fill="#5982D5"/>
<path d="M21.5779 26.5869H18.7635C18.2246 26.5869 17.8054 27.0061 17.8054 27.545V30.3594C17.8054 30.8983 18.2246 31.3175 18.7635 31.3175H21.5779C22.1168 31.3175 22.536 30.8983 22.536 30.3594V27.545C22.4761 27.0061 22.0569 26.5869 21.5779 26.5869Z" fill="#5982D5"/>
<path d="M15.4102 26.5869H12.5958C12.0569 26.5869 11.6377 27.0061 11.6377 27.545V30.3594C11.6377 30.8983 12.0569 31.3175 12.5958 31.3175H15.4102C15.9491 31.3175 16.3682 30.8983 16.3682 30.3594V27.545C16.3682 27.0061 15.9491 26.5869 15.4102 26.5869Z" fill="#5982D5"/>
<path d="M27.6857 32.7544H24.8713C24.3324 32.7544 23.9132 33.1736 23.9132 33.7125V36.5269C23.9132 37.0658 24.3324 37.4849 24.8713 37.4849H27.6857C28.2246 37.4849 28.6438 37.0658 28.6438 36.5269V33.7125C28.6438 33.1736 28.2246 32.7544 27.6857 32.7544Z" fill="#5982D5"/>
<path d="M21.5779 32.7544H18.7635C18.2246 32.7544 17.8054 33.1736 17.8054 33.7125V36.5269C17.8054 37.0658 18.2246 37.4849 18.7635 37.4849H21.5779C22.1168 37.4849 22.536 37.0658 22.536 36.5269V33.7125C22.4761 33.1736 22.0569 32.7544 21.5779 32.7544Z" fill="#5982D5"/>
<path d="M15.4102 32.7544H12.5958C12.0569 32.7544 11.6377 33.1736 11.6377 33.7125V36.5269C11.6377 37.0658 12.0569 37.4849 12.5958 37.4849H15.4102C15.9491 37.4849 16.3682 37.0658 16.3682 36.5269V33.7125C16.3682 33.1736 15.9491 32.7544 15.4102 32.7544Z" fill="#5982D5"/>
<path d="M16.3683 27.4849V30.2993C16.3683 30.8382 15.9492 31.2574 15.4102 31.2574H14.4521C14.9911 31.2574 15.4102 30.8382 15.4102 30.2993V27.4849C15.4102 26.946 14.9911 26.5269 14.4521 26.5269H15.4102C15.9492 26.5867 16.3683 27.0059 16.3683 27.4849Z" fill="#486AAF"/>
<path d="M22.4761 27.4849V30.2993C22.4761 30.8382 22.0569 31.2574 21.518 31.2574H20.5599C21.0989 31.2574 21.518 30.8382 21.518 30.2993V27.4849C21.518 26.946 21.0989 26.5269 20.5599 26.5269H21.518C22.0569 26.5867 22.4761 27.0059 22.4761 27.4849Z" fill="#486AAF"/>
<path d="M28.6437 27.4849V30.2993C28.6437 30.8382 28.2245 31.2574 27.6856 31.2574H26.7275C27.2665 31.2574 27.6856 30.8382 27.6856 30.2993V27.4849C27.6856 26.946 27.2665 26.5269 26.7275 26.5269H27.6856C28.2245 26.5867 28.6437 27.0059 28.6437 27.4849Z" fill="#486AAF"/>
<path d="M16.3683 33.7125V36.5269C16.3683 37.0658 15.9492 37.4849 15.4102 37.4849H14.4521C14.9911 37.4849 15.4102 37.0658 15.4102 36.5269V33.7125C15.4102 33.1736 14.9911 32.7544 14.4521 32.7544H15.4102C15.9492 32.7544 16.3683 33.1736 16.3683 33.7125Z" fill="#486AAF"/>
<path d="M22.4761 33.7125V36.5269C22.4761 37.0658 22.0569 37.4849 21.518 37.4849H20.5599C21.0989 37.4849 21.518 37.0658 21.518 36.5269V33.7125C21.518 33.1736 21.0989 32.7544 20.5599 32.7544H21.518C22.0569 32.7544 22.4761 33.1736 22.4761 33.7125Z" fill="#486AAF"/>
<path d="M28.6437 33.7125V36.5269C28.6437 37.0658 28.2245 37.4849 27.6856 37.4849H26.7275C27.2665 37.4849 27.6856 37.0658 27.6856 36.5269V33.7125C27.6856 33.1736 27.2665 32.7544 26.7275 32.7544H27.6856C28.2245 32.7544 28.6437 33.1736 28.6437 33.7125Z" fill="#486AAF"/>
</svg>
